<svg width="235" height="41" viewBox="0 0 235 41" fill="none" xmlns="http://www.w3.org/2000/svg">
<g filter="url(#filter0_d_2_7)">
<path d="M10.8623 3.93442C11.3415 2.20067 12.919 1 14.7178 1H227.688C230.348 1 232.268 3.54836 231.533 6.10501L223.772 33.105C223.279 34.8192 221.711 36 219.927 36H7.25548C4.61235 36 2.69592 33.482 3.40003 30.9344L10.8623 3.93442Z" fill="#FE9A00"/>
<path d="M27.3602 15.1616H29.1457L30.6415 19.0224H30.7352L33.5008 15.1616H35.2863L31.204 20.6332L30.6628 23.8889H29.0861L29.6273 20.6332L27.3602 15.1616ZM36.5424 24.0167C35.8975 24.0167 35.3606 23.8747 34.9316 23.5906C34.5055 23.3065 34.2057 22.9074 34.0324 22.3931C33.8591 21.8789 33.8279 21.2824 33.9387 20.6034C34.0495 19.9329 34.2711 19.3463 34.6035 18.8434C34.9387 18.3406 35.3606 17.9514 35.8691 17.6758C36.3805 17.3974 36.9529 17.2582 37.5864 17.2582C38.2313 17.2582 38.7668 17.4017 39.193 17.6886C39.6191 17.9727 39.9188 18.3718 40.0921 18.886C40.2682 19.4002 40.3009 19.9997 40.1901 20.6843C40.0822 21.352 39.8591 21.9358 39.5211 22.4358C39.1858 22.9358 38.764 23.325 38.2555 23.6034C37.7469 23.8789 37.1759 24.0167 36.5424 24.0167ZM36.6702 22.7809C37.0282 22.7809 37.3421 22.6843 37.612 22.4912C37.8847 22.2951 38.1077 22.0324 38.281 21.7028C38.4572 21.3704 38.5793 21.0011 38.6475 20.5949C38.71 20.2028 38.7114 19.8477 38.6518 19.5295C38.5921 19.2085 38.4643 18.9542 38.2682 18.7667C38.0751 18.5764 37.8066 18.4812 37.4628 18.4812C37.1049 18.4812 36.7881 18.5806 36.5126 18.7795C36.2398 18.9755 36.0168 19.2397 35.8435 19.5721C35.6702 19.9017 35.5509 20.2696 35.4856 20.6758C35.4202 21.0679 35.4174 21.423 35.477 21.7412C35.5367 22.0593 35.6645 22.3122 35.8606 22.4997C36.0566 22.6872 36.3265 22.7809 36.6702 22.7809ZM45.5988 21.136L46.2338 17.3434H47.7764L46.6855 23.8889H45.1898L45.3858 22.7255H45.3176C45.1131 23.092 44.8204 23.3917 44.4398 23.6247C44.0619 23.8576 43.6273 23.9741 43.1358 23.9741C42.7068 23.9741 42.3446 23.8789 42.0491 23.6886C41.7537 23.4954 41.5434 23.2156 41.4184 22.8491C41.2963 22.4798 41.2778 22.0338 41.3631 21.511L42.0619 17.3434H43.6045L42.9483 21.2724C42.8829 21.6872 42.9426 22.0167 43.1273 22.261C43.3148 22.5054 43.5932 22.6275 43.9625 22.6275C44.1898 22.6275 44.4184 22.5721 44.6486 22.4613C44.8815 22.3505 45.0846 22.1858 45.2579 21.967C45.4312 21.7454 45.5449 21.4684 45.5988 21.136ZM48.2718 23.8889L49.3627 17.3434H50.8584L50.6752 18.4343H50.7434C50.9224 18.0565 51.1752 17.7653 51.5019 17.5608C51.8314 17.3534 52.1837 17.2497 52.5587 17.2497C52.6468 17.2497 52.742 17.2539 52.8442 17.2625C52.9465 17.2681 53.0346 17.2781 53.1084 17.2923L52.8698 18.7113C52.8045 18.6886 52.7022 18.6687 52.563 18.6517C52.4266 18.6318 52.2917 18.6218 52.1582 18.6218C51.8769 18.6218 51.6155 18.6829 51.3741 18.8051C51.1354 18.9244 50.9337 19.0906 50.7689 19.3037C50.6042 19.5167 50.4976 19.7625 50.4493 20.0409L49.8144 23.8889H48.2718ZM62.9554 17.3434L59.5335 23.8889H57.829L56.5889 17.3434H58.1741L58.873 22.2056H58.9412L61.2551 17.3434H62.9554ZM65.5814 24.0167C64.9366 24.0167 64.3996 23.8747 63.9707 23.5906C63.5445 23.3065 63.2448 22.9074 63.0715 22.3931C62.8982 21.8789 62.867 21.2824 62.9778 20.6034C63.0885 19.9329 63.3101 19.3463 63.6425 18.8434C63.9778 18.3406 64.3996 17.9514 64.9082 17.6758C65.4195 17.3974 65.992 17.2582 66.6255 17.2582C67.2704 17.2582 67.8059 17.4017 68.232 17.6886C68.6582 17.9727 68.9579 18.3718 69.1312 18.886C69.3073 19.4002 69.34 19.9997 69.2292 20.6843C69.1212 21.352 68.8982 21.9358 68.5601 22.4358C68.2249 22.9358 67.803 23.325 67.2945 23.6034C66.786 23.8789 66.215 24.0167 65.5814 24.0167ZM65.7093 22.7809C66.0672 22.7809 66.3812 22.6843 66.651 22.4912C66.9238 22.2951 67.1468 22.0324 67.3201 21.7028C67.4962 21.3704 67.6184 21.0011 67.6866 20.5949C67.7491 20.2028 67.7505 19.8477 67.6908 19.5295C67.6312 19.2085 67.5033 18.9542 67.3073 18.7667C67.1141 18.5764 66.8457 18.4812 66.5019 18.4812C66.1439 18.4812 65.8272 18.5806 65.5516 18.7795C65.2789 18.9755 65.0559 19.2397 64.8826 19.5721C64.7093 19.9017 64.59 20.2696 64.5246 20.6758C64.4593 21.0679 64.4564 21.423 64.5161 21.7412C64.5758 22.0593 64.7036 22.3122 64.8996 22.4997C65.0957 22.6872 65.3655 22.7809 65.7093 22.7809ZM74.3694 17.3434L74.1692 18.5366H70.4106L70.6067 17.3434H74.3694ZM71.7913 15.7752H73.3339L72.3112 21.9201C72.28 22.1275 72.2856 22.2866 72.3282 22.3974C72.3737 22.5054 72.4461 22.5792 72.5456 22.619C72.6479 22.6588 72.7629 22.6787 72.8907 22.6787C72.9845 22.6787 73.0726 22.6716 73.155 22.6574C73.2373 22.6403 73.3027 22.6275 73.351 22.619L73.4192 23.825C73.3254 23.8534 73.199 23.8846 73.0399 23.9187C72.8836 23.9528 72.6961 23.9727 72.4774 23.9784C72.0854 23.9869 71.7444 23.9272 71.4547 23.7994C71.1677 23.6687 70.9575 23.4684 70.824 23.1985C70.6933 22.9258 70.6635 22.5849 70.7345 22.1758L71.7913 15.7752ZM77.379 24.0167C76.7228 24.0167 76.1802 23.8804 75.7512 23.6076C75.3222 23.3321 75.0211 22.9429 74.8478 22.44C74.6773 21.9343 74.6489 21.3392 74.7626 20.6545C74.8733 19.9812 75.0992 19.3903 75.4401 18.8818C75.781 18.3704 76.2072 17.9727 76.7185 17.6886C77.2327 17.4017 77.8009 17.2582 78.4231 17.2582C78.8265 17.2582 79.1972 17.3235 79.5353 17.4542C79.8733 17.5821 80.1589 17.7809 80.3918 18.0508C80.6248 18.3207 80.7853 18.6645 80.8733 19.0821C80.9614 19.4968 80.9572 19.9912 80.8606 20.565L80.7881 21.038H75.4188L75.585 19.9983H79.4714C79.5225 19.7028 79.5055 19.44 79.4202 19.2099C79.335 18.977 79.193 18.7937 78.9941 18.6602C78.7952 18.5267 78.5466 18.4599 78.2483 18.4599C77.9444 18.4599 77.6603 18.538 77.3961 18.6943C77.1347 18.8477 76.9145 19.0466 76.7356 19.2909C76.5566 19.5352 76.443 19.7923 76.3947 20.0622L76.2199 21.0593C76.1574 21.4684 76.1716 21.8022 76.2626 22.0608C76.3535 22.3193 76.5126 22.5096 76.7398 22.6318C76.9671 22.7539 77.254 22.815 77.6006 22.815C77.8279 22.815 78.0381 22.7838 78.2313 22.7213C78.4245 22.6588 78.5964 22.565 78.7469 22.44C78.9003 22.3122 79.0282 22.1559 79.1305 21.9713L80.541 22.1332C80.3847 22.5139 80.156 22.8463 79.8549 23.1304C79.5537 23.4116 79.193 23.6304 78.7725 23.7866C78.3549 23.94 77.8904 24.0167 77.379 24.0167ZM90.5701 19.0735L89.151 19.227C89.1368 19.0821 89.0928 18.9471 89.0189 18.8221C88.9451 18.6971 88.8343 18.5977 88.6866 18.5238C88.5417 18.4471 88.3542 18.4088 88.1241 18.4088C87.7888 18.4088 87.4948 18.4841 87.242 18.6346C86.9891 18.7852 86.8457 18.9784 86.8116 19.2142C86.7803 19.3903 86.8229 19.5338 86.9394 19.6446C87.0559 19.7554 87.2718 19.8491 87.5871 19.9258L88.6695 20.1645C89.2661 20.298 89.6951 20.5139 89.9564 20.8122C90.2207 21.1105 90.313 21.5011 90.2334 21.9841C90.1653 22.3875 89.9891 22.7426 89.705 23.0494C89.4209 23.3534 89.0573 23.5906 88.6141 23.761C88.1738 23.9315 87.6851 24.0167 87.1482 24.0167C86.3329 24.0167 85.705 23.8477 85.2647 23.5096C84.8272 23.1687 84.6099 22.7 84.6127 22.1034L86.1297 21.9585C86.1468 22.2539 86.2505 22.477 86.4408 22.6275C86.6312 22.7752 86.8954 22.8505 87.2334 22.8534C87.6141 22.8562 87.9351 22.7767 88.1965 22.6147C88.4607 22.45 88.6099 22.2497 88.6439 22.0139C88.6724 21.8377 88.6283 21.6943 88.5118 21.5835C88.3982 21.4727 88.1951 21.3846 87.9025 21.3193L86.8286 21.0849C86.2207 20.9514 85.7874 20.7255 85.5289 20.4074C85.2732 20.0863 85.1866 19.6815 85.2689 19.1929C85.3371 18.7951 85.5033 18.4528 85.7675 18.1659C86.0346 17.8761 86.3769 17.6531 86.7945 17.4968C87.2121 17.3377 87.6795 17.2582 88.1965 17.2582C88.9749 17.2582 89.5616 17.4216 89.9564 17.7483C90.3513 18.075 90.5559 18.5167 90.5701 19.0735ZM93.3677 20.0537L92.737 23.8889H91.1901L92.639 15.1616H94.1518L93.6063 18.4556H93.6873C93.8947 18.0835 94.1773 17.7909 94.5353 17.5778C94.8961 17.3647 95.3293 17.2582 95.835 17.2582C96.2839 17.2582 96.6617 17.3534 96.9685 17.5437C97.2753 17.7341 97.4912 18.0125 97.6162 18.3789C97.7441 18.7454 97.7654 19.1929 97.6802 19.7213L96.9813 23.8889H95.4344L96.0907 19.9599C96.1617 19.5196 96.1035 19.1772 95.916 18.9329C95.7313 18.6858 95.4387 18.5622 95.0381 18.5622C94.7626 18.5622 94.5083 18.6218 94.2753 18.7412C94.0424 18.8576 93.8464 19.0267 93.6873 19.2483C93.531 19.4699 93.4245 19.7383 93.3677 20.0537ZM100.412 24.021C99.9969 24.021 99.6361 23.9471 99.3293 23.7994C99.0225 23.6488 98.7966 23.4272 98.6518 23.1346C98.5097 22.842 98.4742 22.4812 98.5452 22.0522C98.6077 21.6829 98.727 21.3775 98.9032 21.136C99.0822 20.8946 99.3009 20.7014 99.5594 20.5565C99.8208 20.4088 100.105 20.298 100.412 20.2241C100.721 20.1502 101.037 20.0963 101.358 20.0622C101.75 20.0224 102.067 19.9855 102.308 19.9514C102.552 19.9173 102.736 19.8662 102.858 19.798C102.98 19.727 103.054 19.619 103.079 19.4741V19.4485C103.13 19.1275 103.079 18.8789 102.926 18.7028C102.772 18.5267 102.517 18.4386 102.159 18.4386C101.784 18.4386 101.469 18.521 101.213 18.6858C100.957 18.8505 100.771 19.0451 100.655 19.2696L99.2569 19.065C99.433 18.6673 99.6745 18.3349 99.9813 18.0679C100.288 17.798 100.642 17.5963 101.042 17.4627C101.446 17.3264 101.876 17.2582 102.334 17.2582C102.646 17.2582 102.951 17.2951 103.25 17.369C103.551 17.4429 103.817 17.565 104.047 17.7355C104.28 17.9031 104.45 18.1318 104.558 18.4216C104.669 18.7113 104.687 19.0735 104.613 19.5082L103.885 23.8889H102.402L102.555 22.9897H102.504C102.382 23.1716 102.223 23.342 102.027 23.5011C101.831 23.6574 101.598 23.7838 101.328 23.8804C101.058 23.9741 100.753 24.021 100.412 24.021ZM100.996 22.8875C101.305 22.8875 101.584 22.8264 101.831 22.7042C102.078 22.5792 102.281 22.4145 102.44 22.2099C102.599 22.0054 102.699 21.7824 102.738 21.5409L102.866 20.7696C102.809 20.8093 102.721 20.8463 102.602 20.8804C102.483 20.9145 102.349 20.9443 102.201 20.9699C102.057 20.9954 101.913 21.0181 101.771 21.038C101.629 21.0579 101.507 21.075 101.405 21.0892C101.169 21.1204 100.953 21.1716 100.757 21.2426C100.564 21.3136 100.403 21.413 100.275 21.5409C100.15 21.6659 100.072 21.8278 100.041 22.0267C99.9955 22.3079 100.062 22.5224 100.241 22.6701C100.42 22.815 100.672 22.8875 100.996 22.8875ZM105.031 26.3434L106.54 17.3434H108.057L107.882 18.4258H107.971C108.074 18.2667 108.211 18.0977 108.385 17.9187C108.561 17.7369 108.784 17.5821 109.054 17.4542C109.324 17.3235 109.652 17.2582 110.038 17.2582C110.541 17.2582 110.974 17.3875 111.338 17.646C111.701 17.9017 111.961 18.2809 112.118 18.7838C112.277 19.2838 112.297 19.8974 112.177 20.6247C112.058 21.3434 111.838 21.9542 111.517 22.4571C111.196 22.9599 110.811 23.3434 110.362 23.6076C109.913 23.8718 109.432 24.0039 108.917 24.0039C108.542 24.0039 108.24 23.9414 108.01 23.8164C107.782 23.6914 107.611 23.5409 107.494 23.3647C107.378 23.1858 107.291 23.0167 107.234 22.8576H107.166L106.586 26.3434H105.031ZM107.507 20.6162C107.439 21.0395 107.437 21.4102 107.503 21.7284C107.571 22.0466 107.706 22.2951 107.907 22.4741C108.109 22.6502 108.373 22.7383 108.7 22.7383C109.041 22.7383 109.339 22.6474 109.595 22.4656C109.853 22.2809 110.068 22.0295 110.238 21.7113C110.412 21.3903 110.534 21.0252 110.605 20.6162C110.67 20.2099 110.67 19.8491 110.605 19.5338C110.54 19.2184 110.407 18.9713 110.209 18.7923C110.01 18.6133 109.74 18.5238 109.399 18.5238C109.067 18.5238 108.77 18.6105 108.508 18.7838C108.25 18.9571 108.035 19.2 107.865 19.5125C107.694 19.825 107.575 20.1929 107.507 20.6162ZM115.828 24.0167C115.172 24.0167 114.629 23.8804 114.2 23.6076C113.771 23.3321 113.47 22.9429 113.297 22.44C113.127 21.9343 113.098 21.3392 113.212 20.6545C113.323 19.9812 113.548 19.3903 113.889 18.8818C114.23 18.3704 114.656 17.9727 115.168 17.6886C115.682 17.4017 116.25 17.2582 116.872 17.2582C117.276 17.2582 117.646 17.3235 117.985 17.4542C118.323 17.5821 118.608 17.7809 118.841 18.0508C119.074 18.3207 119.234 18.6645 119.323 19.0821C119.411 19.4968 119.406 19.9912 119.31 20.565L119.237 21.038H113.868L114.034 19.9983H117.921C117.972 19.7028 117.955 19.44 117.869 19.2099C117.784 18.977 117.642 18.7937 117.443 18.6602C117.244 18.5267 116.996 18.4599 116.698 18.4599C116.394 18.4599 116.109 18.538 115.845 18.6943C115.584 18.8477 115.364 19.0466 115.185 19.2909C115.006 19.5352 114.892 19.7923 114.844 20.0622L114.669 21.0593C114.607 21.4684 114.621 21.8022 114.712 22.0608C114.803 22.3193 114.962 22.5096 115.189 22.6318C115.416 22.7539 115.703 22.815 116.05 22.815C116.277 22.815 116.487 22.7838 116.681 22.7213C116.874 22.6588 117.046 22.565 117.196 22.44C117.35 22.3122 117.477 22.1559 117.58 21.9713L118.99 22.1332C118.834 22.5139 118.605 22.8463 118.304 23.1304C118.003 23.4116 117.642 23.6304 117.222 23.7866C116.804 23.94 116.34 24.0167 115.828 24.0167ZM126.043 19.0735L124.624 19.227C124.61 19.0821 124.565 18.9471 124.492 18.8221C124.418 18.6971 124.307 18.5977 124.159 18.5238C124.014 18.4471 123.827 18.4088 123.597 18.4088C123.261 18.4088 122.967 18.4841 122.715 18.6346C122.462 18.7852 122.318 18.9784 122.284 19.2142C122.253 19.3903 122.296 19.5338 122.412 19.6446C122.529 19.7554 122.744 19.8491 123.06 19.9258L124.142 20.1645C124.739 20.298 125.168 20.5139 125.429 20.8122C125.693 21.1105 125.786 21.5011 125.706 21.9841C125.638 22.3875 125.462 22.7426 125.178 23.0494C124.894 23.3534 124.53 23.5906 124.087 23.761C123.646 23.9315 123.158 24.0167 122.621 24.0167C121.806 24.0167 121.178 23.8477 120.737 23.5096C120.3 23.1687 120.083 22.7 120.085 22.1034L121.602 21.9585C121.619 22.2539 121.723 22.477 121.913 22.6275C122.104 22.7752 122.368 22.8505 122.706 22.8534C123.087 22.8562 123.408 22.7767 123.669 22.6147C123.933 22.45 124.083 22.2497 124.117 22.0139C124.145 21.8377 124.101 21.6943 123.984 21.5835C123.871 21.4727 123.668 21.3846 123.375 21.3193L122.301 21.0849C121.693 20.9514 121.26 20.7255 121.002 20.4074C120.746 20.0863 120.659 19.6815 120.742 19.1929C120.81 18.7951 120.976 18.4528 121.24 18.1659C121.507 17.8761 121.85 17.6531 122.267 17.4968C122.685 17.3377 123.152 17.2582 123.669 17.2582C124.448 17.2582 125.034 17.4216 125.429 17.7483C125.824 18.075 126.029 18.5167 126.043 19.0735ZM132.733 15.1616L131.284 23.8889H129.703L131.152 15.1616H132.733ZM135.11 20.0537L134.479 23.8889H132.932L134.023 17.3434H135.502L135.314 18.4556H135.395C135.6 18.0892 135.887 17.798 136.256 17.5821C136.625 17.3662 137.056 17.2582 137.547 17.2582C137.993 17.2582 138.368 17.3548 138.672 17.548C138.976 17.7383 139.192 18.0181 139.32 18.3875C139.448 18.7539 139.468 19.1985 139.38 19.7213L138.681 23.8889H137.138L137.79 19.9599C137.864 19.5252 137.809 19.1843 137.624 18.9372C137.442 18.6872 137.15 18.5622 136.746 18.5622C136.476 18.5622 136.228 18.6218 136 18.7412C135.773 18.8576 135.581 19.0267 135.425 19.2483C135.272 19.4699 135.167 19.7383 135.11 20.0537ZM142.661 24.0039C142.147 24.0039 141.708 23.8718 141.344 23.6076C140.981 23.3434 140.722 22.9599 140.569 22.4571C140.418 21.9542 140.401 21.3434 140.518 20.6247C140.64 19.8974 140.863 19.2838 141.187 18.7838C141.51 18.2809 141.897 17.9017 142.346 17.646C142.797 17.3875 143.275 17.2582 143.777 17.2582C144.164 17.2582 144.469 17.3235 144.694 17.4542C144.921 17.5821 145.091 17.7369 145.205 17.9187C145.319 18.0977 145.402 18.2667 145.456 18.4258H145.52L146.062 15.1616H147.608L146.16 23.8889H144.643L144.817 22.8576H144.723C144.616 23.0167 144.472 23.1858 144.293 23.3647C144.114 23.5409 143.891 23.6914 143.624 23.8164C143.357 23.9414 143.036 24.0039 142.661 24.0039ZM143.275 22.7383C143.604 22.7383 143.9 22.6502 144.161 22.4741C144.425 22.2951 144.645 22.0466 144.822 21.7284C144.998 21.4102 145.121 21.0395 145.192 20.6162C145.263 20.1929 145.263 19.825 145.192 19.5125C145.121 19.2 144.983 18.9571 144.779 18.7838C144.574 18.6105 144.306 18.5238 143.973 18.5238C143.633 18.5238 143.333 18.6133 143.074 18.7923C142.819 18.9713 142.608 19.2184 142.444 19.5338C142.279 19.8491 142.162 20.2099 142.094 20.6162C142.026 21.0252 142.022 21.3903 142.081 21.7113C142.144 22.0295 142.273 22.2809 142.469 22.4656C142.668 22.6474 142.937 22.7383 143.275 22.7383ZM147.811 23.8889L148.902 17.3434H150.444L149.353 23.8889H147.811ZM149.899 16.4059C149.652 16.4059 149.447 16.3235 149.285 16.1588C149.123 15.994 149.052 15.7966 149.072 15.5664C149.092 15.3363 149.196 15.1389 149.383 14.9741C149.574 14.8093 149.791 14.727 150.035 14.727C150.282 14.727 150.486 14.8093 150.645 14.9741C150.807 15.1389 150.878 15.3363 150.858 15.5664C150.841 15.7966 150.737 15.994 150.547 16.1588C150.359 16.3235 150.143 16.4059 149.899 16.4059ZM152.806 24.021C152.391 24.021 152.031 23.9471 151.724 23.7994C151.417 23.6488 151.191 23.4272 151.046 23.1346C150.904 22.842 150.869 22.4812 150.94 22.0522C151.002 21.6829 151.122 21.3775 151.298 21.136C151.477 20.8946 151.695 20.7014 151.954 20.5565C152.215 20.4088 152.499 20.298 152.806 20.2241C153.116 20.1502 153.431 20.0963 153.752 20.0622C154.144 20.0224 154.461 19.9855 154.703 19.9514C154.947 19.9173 155.13 19.8662 155.252 19.798C155.374 19.727 155.448 19.619 155.474 19.4741V19.4485C155.525 19.1275 155.474 18.8789 155.32 18.7028C155.167 18.5267 154.911 18.4386 154.553 18.4386C154.178 18.4386 153.863 18.521 153.607 18.6858C153.352 18.8505 153.166 19.0451 153.049 19.2696L151.651 19.065C151.828 18.6673 152.069 18.3349 152.376 18.0679C152.683 17.798 153.036 17.5963 153.437 17.4627C153.84 17.3264 154.271 17.2582 154.728 17.2582C155.041 17.2582 155.346 17.2951 155.644 17.369C155.945 17.4429 156.211 17.565 156.441 17.7355C156.674 17.9031 156.845 18.1318 156.953 18.4216C157.063 18.7113 157.082 19.0735 157.008 19.5082L156.279 23.8889H154.796L154.95 22.9897H154.899C154.776 23.1716 154.617 23.342 154.421 23.5011C154.225 23.6574 153.992 23.7838 153.722 23.8804C153.453 23.9741 153.147 24.021 152.806 24.021ZM153.39 22.8875C153.7 22.8875 153.978 22.8264 154.225 22.7042C154.472 22.5792 154.676 22.4145 154.835 22.2099C154.994 22.0054 155.093 21.7824 155.133 21.5409L155.261 20.7696C155.204 20.8093 155.116 20.8463 154.997 20.8804C154.877 20.9145 154.744 20.9443 154.596 20.9699C154.451 20.9954 154.308 21.0181 154.166 21.038C154.024 21.0579 153.901 21.075 153.799 21.0892C153.563 21.1204 153.347 21.1716 153.151 21.2426C152.958 21.3136 152.798 21.413 152.67 21.5409C152.545 21.6659 152.467 21.8278 152.435 22.0267C152.39 22.3079 152.457 22.5224 152.636 22.6701C152.815 22.815 153.066 22.8875 153.39 22.8875ZM160.587 15.1616L160.447 16.0309C160.407 16.2809 160.316 16.5409 160.174 16.8108C160.032 17.0778 159.859 17.3335 159.654 17.5778C159.45 17.8193 159.23 18.0267 158.994 18.2L158.346 17.7355C158.539 17.4997 158.717 17.2454 158.879 16.9727C159.041 16.6971 159.151 16.386 159.211 16.0395L159.36 15.1616H160.587ZM165.511 19.0735L164.092 19.227C164.078 19.0821 164.034 18.9471 163.96 18.8221C163.886 18.6971 163.776 18.5977 163.628 18.5238C163.483 18.4471 163.296 18.4088 163.065 18.4088C162.73 18.4088 162.436 18.4841 162.183 18.6346C161.931 18.7852 161.787 18.9784 161.753 19.2142C161.722 19.3903 161.764 19.5338 161.881 19.6446C161.997 19.7554 162.213 19.8491 162.529 19.9258L163.611 20.1645C164.208 20.298 164.636 20.5139 164.898 20.8122C165.162 21.1105 165.254 21.5011 165.175 21.9841C165.107 22.3875 164.931 22.7426 164.646 23.0494C164.362 23.3534 163.999 23.5906 163.556 23.761C163.115 23.9315 162.627 24.0167 162.09 24.0167C161.274 24.0167 160.646 23.8477 160.206 23.5096C159.769 23.1687 159.551 22.7 159.554 22.1034L161.071 21.9585C161.088 22.2539 161.192 22.477 161.382 22.6275C161.573 22.7752 161.837 22.8505 162.175 22.8534C162.556 22.8562 162.877 22.7767 163.138 22.6147C163.402 22.45 163.551 22.2497 163.585 22.0139C163.614 21.8377 163.57 21.6943 163.453 21.5835C163.34 21.4727 163.136 21.3846 162.844 21.3193L161.77 21.0849C161.162 20.9514 160.729 20.7255 160.47 20.4074C160.215 20.0863 160.128 19.6815 160.21 19.1929C160.279 18.7951 160.445 18.4528 160.709 18.1659C160.976 17.8761 161.318 17.6531 161.736 17.4968C162.154 17.3377 162.621 17.2582 163.138 17.2582C163.916 17.2582 164.503 17.4216 164.898 17.7483C165.293 18.075 165.497 18.5167 165.511 19.0735ZM173.514 17.3434L173.314 18.5366H169.445L169.645 17.3434H173.514ZM169.517 23.8889L170.715 16.7255C170.783 16.2852 170.932 15.9187 171.162 15.6261C171.395 15.3335 171.678 15.1147 172.01 14.9699C172.345 14.825 172.702 14.7525 173.08 14.7525C173.35 14.7525 173.584 14.7738 173.783 14.8164C173.982 14.8591 174.127 14.8974 174.217 14.9315L173.719 16.1247C173.654 16.1048 173.574 16.0849 173.48 16.065C173.389 16.0423 173.283 16.0309 173.161 16.0309C172.874 16.0309 172.659 16.1005 172.517 16.2397C172.375 16.3761 172.281 16.5721 172.236 16.8278L171.064 23.8889H169.517ZM178.267 21.136L178.902 17.3434H180.444L179.353 23.8889H177.858L178.054 22.7255H177.986C177.781 23.092 177.488 23.3917 177.108 23.6247C176.73 23.8576 176.295 23.9741 175.804 23.9741C175.375 23.9741 175.013 23.8789 174.717 23.6886C174.422 23.4954 174.211 23.2156 174.086 22.8491C173.964 22.4798 173.946 22.0338 174.031 21.511L174.73 17.3434H176.272L175.616 21.2724C175.551 21.6872 175.611 22.0167 175.795 22.261C175.983 22.5054 176.261 22.6275 176.63 22.6275C176.858 22.6275 177.086 22.5721 177.317 22.4613C177.549 22.3505 177.753 22.1858 177.926 21.967C178.099 21.7454 178.213 21.4684 178.267 21.136ZM185.299 17.3434L185.099 18.5366H181.34L181.536 17.3434H185.299ZM182.721 15.7752H184.264L183.241 21.9201C183.21 22.1275 183.215 22.2866 183.258 22.3974C183.303 22.5054 183.376 22.5792 183.475 22.619C183.578 22.6588 183.693 22.6787 183.82 22.6787C183.914 22.6787 184.002 22.6716 184.085 22.6574C184.167 22.6403 184.232 22.6275 184.281 22.619L184.349 23.825C184.255 23.8534 184.129 23.8846 183.97 23.9187C183.813 23.9528 183.626 23.9727 183.407 23.9784C183.015 23.9869 182.674 23.9272 182.384 23.7994C182.097 23.6687 181.887 23.4684 181.754 23.1985C181.623 22.9258 181.593 22.5849 181.664 22.1758L182.721 15.7752ZM190.126 21.136L190.761 17.3434H192.304L191.213 23.8889H189.717L189.913 22.7255H189.845C189.64 23.092 189.348 23.3917 188.967 23.6247C188.589 23.8576 188.155 23.9741 187.663 23.9741C187.234 23.9741 186.872 23.8789 186.576 23.6886C186.281 23.4954 186.071 23.2156 185.946 22.8491C185.824 22.4798 185.805 22.0338 185.89 21.511L186.589 17.3434H188.132L187.476 21.2724C187.41 21.6872 187.47 22.0167 187.655 22.261C187.842 22.5054 188.121 22.6275 188.49 22.6275C188.717 22.6275 188.946 22.5721 189.176 22.4613C189.409 22.3505 189.612 22.1858 189.785 21.967C189.959 21.7454 190.072 21.4684 190.126 21.136ZM192.799 23.8889L193.89 17.3434H195.386L195.203 18.4343H195.271C195.45 18.0565 195.703 17.7653 196.029 17.5608C196.359 17.3534 196.711 17.2497 197.086 17.2497C197.174 17.2497 197.269 17.2539 197.372 17.2625C197.474 17.2681 197.562 17.2781 197.636 17.2923L197.397 18.7113C197.332 18.6886 197.23 18.6687 197.09 18.6517C196.954 18.6318 196.819 18.6218 196.685 18.6218C196.404 18.6218 196.143 18.6829 195.901 18.8051C195.663 18.9244 195.461 19.0906 195.296 19.3037C195.132 19.5167 195.025 19.7625 194.977 20.0409L194.342 23.8889H192.799ZM200.18 24.0167C199.524 24.0167 198.981 23.8804 198.552 23.6076C198.123 23.3321 197.822 22.9429 197.649 22.44C197.478 21.9343 197.45 21.3392 197.563 20.6545C197.674 19.9812 197.9 19.3903 198.241 18.8818C198.582 18.3704 199.008 17.9727 199.519 17.6886C200.034 17.4017 200.602 17.2582 201.224 17.2582C201.627 17.2582 201.998 17.3235 202.336 17.4542C202.674 17.5821 202.96 17.7809 203.193 18.0508C203.426 18.3207 203.586 18.6645 203.674 19.0821C203.762 19.4968 203.758 19.9912 203.661 20.565L203.589 21.038H198.22L198.386 19.9983H202.272C202.323 19.7028 202.306 19.44 202.221 19.2099C202.136 18.977 201.994 18.7937 201.795 18.6602C201.596 18.5267 201.347 18.4599 201.049 18.4599C200.745 18.4599 200.461 18.538 200.197 18.6943C199.935 18.8477 199.715 19.0466 199.536 19.2909C199.357 19.5352 199.244 19.7923 199.195 20.0622L199.021 21.0593C198.958 21.4684 198.972 21.8022 199.063 22.0608C199.154 22.3193 199.313 22.5096 199.541 22.6318C199.768 22.7539 200.055 22.815 200.401 22.815C200.629 22.815 200.839 22.7838 201.032 22.7213C201.225 22.6588 201.397 22.565 201.548 22.44C201.701 22.3122 201.829 22.1559 201.931 21.9713L203.342 22.1332C203.185 22.5139 202.957 22.8463 202.656 23.1304C202.355 23.4116 201.994 23.6304 201.573 23.7866C201.156 23.94 200.691 24.0167 200.18 24.0167Z" fill="#FBE0DF"/>
</g>
<defs>
<filter id="filter0_d_2_7" x="0.253174" y="0" width="234.438" height="41" filterUnits="userSpaceOnUse" color-interpolation-filters="sRGB">
<feFlood flood-opacity="0" result="BackgroundImageFix"/>
<feColorMatrix in="SourceAlpha" type="matrix" values="0 0 0 0 0 0 0 0 0 0 0 0 0 0 0 0 0 0 127 0" result="hardAlpha"/>
<feOffset dy="2"/>
<feGaussianBlur stdDeviation="1.5"/>
<feComposite in2="hardAlpha" operator="out"/>
<feColorMatrix type="matrix" values="0 0 0 0 0 0 0 0 0 0 0 0 0 0 0 0 0 0 0.25 0"/>
<feBlend mode="normal" in2="BackgroundImageFix" result="effect1_dropShadow_2_7"/>
<feBlend mode="normal" in="SourceGraphic" in2="effect1_dropShadow_2_7" result="shape"/>
</filter>
</defs>
</svg>
